<?xml version="1.0" encoding="iso-8859-1"?>
<!-- Uploaded to: SVG Repo, www.svgrepo.com, Generator: SVG Repo Mixer Tools -->
<svg height="800px" width="800px" version="1.1" id="Layer_1" xmlns="http://www.w3.org/2000/svg" xmlns:xlink="http://www.w3.org/1999/xlink" 
	 viewBox="0 0 512 512" xml:space="preserve">
<path style="fill:#F00000;" d="M256,0C114.616,0,0,114.616,0,256s114.616,256,256,256s256-114.616,256-256S397.384,0,256,0z"/>
<polygon points="446.512,335.616 65.488,335.616 65.488,348.216 84.536,365.808 427.464,365.808 446.512,348.216 "/>
<path style="fill:#FFFFFF;" d="M101.208,335.616V129.032c0-4.944,4.016-8.984,8.928-8.984h291.72c4.912,0,8.936,4.04,8.936,8.984
	v206.584"/>
<path d="M416.744,335.616H404.84V129.032c0-1.64-1.36-3.032-2.976-3.032H110.136c-1.616,0-2.976,1.392-2.976,3.032v206.584H95.256
	V129.032c0-8.248,6.672-14.944,14.88-14.944h291.72c8.208,0,14.88,6.696,14.88,14.944v206.584H416.744z"/>
<g>
	<polygon style="fill:#999999;" points="290.992,348.136 221.008,348.136 209.104,335.616 302.896,335.616 	"/>
	<path style="fill:#999999;" d="M169.224,284.288V271.92c-8.728-0.392-17.192-2.736-22.152-5.6l3.912-15.24
		c5.472,2.992,13.152,5.728,21.632,5.728c7.424,0,12.504-2.864,12.504-8.072c0-4.952-4.168-8.08-13.808-11.336
		c-13.936-4.688-23.456-11.2-23.456-23.832c0-11.464,8.08-20.448,22.024-23.192V178h12.76v11.464
		c8.728,0.392,14.6,2.208,18.896,4.296l-3.776,14.72c-3.384-1.432-9.376-4.432-18.768-4.432c-8.464,0-11.2,3.648-11.2,7.296
		c0,4.296,4.56,7.032,15.632,11.2c15.496,5.472,21.76,12.632,21.76,24.368c0,11.592-8.208,21.488-23.192,24.104v13.28h-12.768
		V284.288z"/>
	<path style="fill:#999999;" d="M231.888,246.592l-4.24,15.28h-13.952l18.192-59.528h17.664l18.456,59.528h-14.48l-4.592-15.28
		L231.888,246.592L231.888,246.592z M246.992,236.528l-3.712-12.624c-1.056-3.528-2.12-7.944-3.008-11.48h-0.176
		c-0.888,3.528-1.768,8.032-2.736,11.48l-3.528,12.624H246.992z"/>
	<path style="fill:#999999;" d="M284.8,261.872l-19.072-59.528h14.752l7.24,25.176c2.032,7.064,3.88,13.864,5.296,21.28h0.264
		c1.504-7.152,3.36-14.216,5.384-21.016l7.6-25.432h14.304L300.52,261.88H284.8V261.872z"/>
	<path style="fill:#999999;" d="M362.352,236.704h-21.896v14.128h24.464v11.04h-37.976v-59.528h36.736v11.048h-23.224v12.36h21.896
		L362.352,236.704L362.352,236.704z"/>
</g>
</svg>